<?xml version="1.0" encoding="UTF-8"?>
<svg width="557px" height="377px" viewBox="0 0 557 377" version="1.1" xmlns="http://www.w3.org/2000/svg" xmlns:xlink="http://www.w3.org/1999/xlink">
    <!-- Generator: Sketch 39.1 (31720) - http://www.bohemiancoding.com/sketch -->
    <title>Slice 1</title>
    <desc>Created with Sketch.</desc>
    <defs>
        <polygon id="path-1" points="0 0 36.938908 0 91 0 91 96 0 96"></polygon>
        <polygon id="path-3" points="0 0 36.938908 0 91 0 91 96 0 96"></polygon>
        <polygon id="path-5" points="0 0 36.938908 0 91 0 91 96 0 96"></polygon>
    </defs>
    <g id="Page-1" stroke="none" stroke-width="1" fill="none" fill-rule="evenodd">
        <g id="Group" transform="translate(1.000000, 1.000000)">
            <g id="Page-1">
                <g id="Group">
                    <path d="M295.560843,271.08752 L295.560831,215.906841 L369.804926,186.757677 L415.084404,187.006749 L530.589271,182.218889 L528.33988,136.42191 L457.550529,139.264944 L410.273314,160.691586 L381.622294,161.14198 L382.270499,139.704501 L412.775648,117.766032 L416.012293,28.6073011 L362.237268,31.8284599 L365.790093,56.8982633 L364.669914,138.685497 L361.635882,143.341723 L361.09386,160.508331 L300.635188,186.213074 L299.755048,99.6353998 L254.9621,99.6637914 L255.395718,186.498281 L194.156276,160.528979 L189.632974,26.3863019 L140.832936,34.1862551 L141.86923,73.3589523 L142.921011,101.14919 L167.437178,125.146564 L173.713017,145.813085 L174.034358,161.104555 L138.984899,160.585763 L102.15193,157.116822 L97.4982849,132.134775 L20.9441439,142.616446 L35.0793007,182.615081 L139.999255,184.550874 L143.634673,186.801555 L185.831078,186.522801 L260.231327,215.901679 L260.685593,265.201152 L233.376723,265.388278 L264.271971,302.138654 C264.271971,302.138654 305.605024,287.957035 305.605013,284.479064 C305.605002,281.001094 301.365297,272.209671 301.365297,272.209671 L307.582797,274.194458 L298.445609,273.102122 L296.704088,272.471422 L295.560843,271.08752 Z" id="Path-2" fill="#262626"></path>
                    <polygon id="Path" fill="#262626" points="192.687474 245.381692 115.220988 243.687471 119.355151 287.001326 442.437985 289.794502 440.812448 234.895834 369.573372 240.940084 361.589598 262.70331 325.225184 266.435198 294.695048 264.897947 232.942531 264.897947"></polygon>
                    <g id="Group-2" stroke="#A9A9A9">
                        <path d="M210.8439,189.4751 C212.8889,188.6771 214.8469,187.6601 216.8439,186.7441 L260.4319,186.7441 L260.4319,214.5581 L218.7999,214.5581 L218.7999,229.8381 L205.9159,229.8381 C205.7379,232.7041 205.5829,235.1881 205.4329,237.5991 L194.4799,237.5991 C194.3349,235.1931 194.2059,233.0491 194.0679,230.7481 L182.0929,230.7481 L182.0929,248.7571 L167.3549,248.7571 L167.3549,265.5381 L142.3759,265.5381 C142.2839,264.7281 142.5809,217.0491 142.7979,215.9951 C165.4829,207.160099 188.1699,198.3351 210.8439,189.4751 L210.8439,189.4751 Z" id="Fill-6" stroke-width="2" transform="translate(201.395304, 226.141100) scale(-1, 1) translate(-201.395304, -226.141100) "></path>
                        <path d="M186.291,56.192 L192.777,56.192 L192.777,40.92 L186.291,40.92 L186.291,56.192 L186.291,56.192 Z M36.591,186.952 L55.547,186.952 L55.547,179.719 L36.591,179.719 L36.591,186.952 L36.591,186.952 Z M126.828,292.694 L146.598,292.694 L146.598,285.508 L126.828,285.508 L126.828,292.694 L126.828,292.694 Z M126.875,153.822 L143.007,153.822 L143.007,144.54 L126.875,144.54 L126.875,153.822 L126.875,153.822 Z M217.301,259.686 L233.923,259.686 L233.923,250.129 L217.301,250.129 L217.301,259.686 L217.301,259.686 Z M209.896,248.659 L219.242,248.659 L219.242,231.774 L209.896,231.774 L209.896,248.659 L209.896,248.659 Z M126.928,166.381 L142.824,166.381 L142.824,155.359 L126.928,155.359 L126.928,166.381 L126.928,166.381 Z M162.867,142.784 L172.99,142.784 L172.99,125.335 L162.867,125.335 L162.867,142.784 L162.867,142.784 Z M118.815,142.971 L128.846,142.971 L128.846,125.352 L118.815,125.352 L118.815,142.971 L118.815,142.971 Z M217.181,272.184 L233.991,272.184 L233.991,261.291 L217.181,261.291 L217.181,272.184 L217.181,272.184 Z M184.245,247.93 L195.74,247.93 L195.74,231.044 L184.245,231.044 L184.245,247.93 L184.245,247.93 Z M93.167,142.163 L104.662,142.163 L104.662,125.278 L93.167,125.278 L93.167,142.163 L93.167,142.163 Z M149.628,142.935 L161.256,142.935 L161.256,125.444 L149.628,125.444 L149.628,142.935 L149.628,142.935 Z M130.606,142.872 L148.089,142.872 L148.089,130.519 L130.606,130.519 L130.606,142.872 L130.606,142.872 Z M130.474,106.884 L147.964,106.884 L147.964,93.791 L130.474,93.791 L130.474,106.884 L130.474,106.884 Z M130.493,128.939 L147.986,128.939 L147.986,115.07 L130.493,115.07 L130.493,128.939 L130.493,128.939 Z M144.501,160.563 L172.993,160.563 L172.993,144.54 L144.501,144.54 L144.501,160.563 L144.501,160.563 Z M149.346,108.056 C146.45,108.186 144.059,108.294 141.624,108.405 L141.624,113.91 L149.452,113.91 L149.452,123.717 L173.009,123.717 L173.009,93.86 L149.346,93.86 L149.346,108.056 L149.346,108.056 Z M184.124,272.076 L215.575,272.076 L215.575,250.18 C213.16,250.036 211.015,249.909 208.484,249.759 L208.484,239.285 L196.951,239.285 L196.951,249.349 L184.124,249.349 L184.124,272.076 L184.124,272.076 Z M125.203,166.41 L125.203,144.381 C122.511,144.253 120.121,144.14 117.349,144.008 L117.349,133.418 L105.942,133.418 L105.942,143.642 L93.078,143.642 L93.078,166.41 L125.203,166.41 L125.203,166.41 Z M65.16,142.074 L91.479,142.074 L91.479,109.891 L65.16,109.891 L65.16,142.074 L65.16,142.074 Z M87.195,214.053 L112.045,214.053 L112.045,179.669 L87.195,179.669 L87.195,214.053 L87.195,214.053 Z M126.858,247.841 L153.911,247.841 L153.911,215.658 L126.858,215.658 L126.858,247.841 L126.858,247.841 Z M155.51,247.836 L182.551,247.836 L182.551,215.658 L155.51,215.658 L155.51,247.836 L155.51,247.836 Z M177.508,320.647 L203.087,320.647 L203.087,285.464 L177.508,285.464 L177.508,320.647 L177.508,320.647 Z M92.313,302.957 L125.291,302.957 L125.291,275.177 L92.313,275.177 L92.313,302.957 L92.313,302.957 Z M186.338,111.335 L223.7,111.335 L223.7,86.488 L186.338,86.488 L186.338,111.335 L186.338,111.335 Z M113.636,214.177 L140.691,214.177 L140.691,179.792 L113.636,179.792 L113.636,214.177 L113.636,214.177 Z M1.289,197.136 L34.895,197.136 L34.895,169.403 L1.289,169.403 L1.289,197.136 L1.289,197.136 Z M109.934,65.73 L148.07,65.73 L148.07,40.883 L109.934,40.883 L109.934,65.73 L109.934,65.73 Z M110.039,92.194 L148.091,92.194 L148.091,67.351 L110.039,67.351 L110.039,92.194 L110.039,92.194 Z M204.719,320.55 L231.763,320.55 L231.763,285.435 L204.719,285.435 L204.719,320.55 L204.719,320.55 Z M148.179,320.659 L175.924,320.659 L175.924,285.581 L148.179,285.581 L148.179,320.659 L148.179,320.659 Z M57.083,214.055 L85.604,214.055 L85.604,179.669 L57.083,179.669 L57.083,214.055 L57.083,214.055 Z M186.418,84.853 L223.738,84.853 L223.738,57.795 L186.418,57.795 L186.418,84.853 L186.418,84.853 Z M176.149,39.293 L203.776,39.293 L203.776,1.134 L176.149,1.134 L176.149,39.293 L176.149,39.293 Z M186.345,142.19 L223.695,142.19 L223.695,112.939 L186.345,112.939 L186.345,142.19 L186.345,142.19 Z M92.408,273.606 L125.327,273.606 L125.327,228.943 L92.408,228.943 L92.408,273.606 L92.408,273.606 Z M1.268,167.773 L34.914,167.773 L34.914,123.117 L1.268,123.117 L1.268,167.773 L1.268,167.773 Z M129.136,39.306 L174.532,39.306 L174.532,1.249 L129.136,1.249 L129.136,39.306 L129.136,39.306 Z M233.354,359.601 L260.418,359.601 L260.418,285.564 L233.354,285.564 L233.354,359.601 L233.354,359.601 Z M142.361,214.299 L183.738,214.299 L183.738,229.708 L196.92,229.708 C197.062,232.615 197.179,235.004 197.307,237.624 L208.301,237.624 C208.42,235.463 208.539,233.316 208.675,230.849 L220.574,230.849 L220.574,248.633 L235.195,248.633 L235.195,265.504 C235.195,265.504 235.277,270.993 235.132,273.194 L182.943,273.194 L182.943,249.488 L126.883,249.488 L126.883,284.07 L261.537,284.07 L261.537,360.646 L232.153,360.646 L232.153,322.154 L146.952,322.154 L146.952,294.291 L126.734,294.291 L126.734,304.039 L91.322,304.039 L91.322,227.639 L125.259,227.639 L125.259,215.631 L55.853,215.631 L55.853,188.515 L36.37,188.515 L36.37,198.282 L0.235,198.282 L0.235,122.03 C1.373,121.966 2.656,121.833 3.938,121.83 C13.24,121.811 22.542,121.821 31.844,121.813 C33.381,121.812 35.186,122.237 35.362,119.817 C35.667,121.015 36.215,122.209 36.232,123.411 C36.321,129.6 36.274,135.792 36.274,142.089 L63.574,142.089 L63.574,110.012 L35.345,110.012 L35.345,119.794 C34.915,116.298 34.484,112.802 34.008,108.925 L92.79,108.925 L92.79,123.95 L105.834,123.95 C105.965,126.721 106.078,129.112 106.205,131.799 L117.251,131.799 C117.373,129.299 117.489,126.909 117.624,124.125 L129.04,124.125 L129.04,113.845 L139.994,113.845 L139.994,108.313 L129.354,108.313 L129.354,93.751 L108.97,93.751 L108.97,39.643 L127.589,39.643 L127.589,0.205 L204.866,0.205 L204.866,40.602 L194.442,40.602 L194.442,56.283 L224.704,56.283 L224.704,143.433 L194.411,143.433 L194.411,161.483 C194.076,161.504 193.742,161.524 193.407,161.545 L193.407,143.704 C190.316,143.554 187.925,143.438 185.146,143.303 L185.146,40.964 L149.594,40.964 L149.594,92.357 L174.065,92.357 L174.065,161.625 L144.557,161.625 C144.359,163.748 144.197,165.501 144.014,167.483 L91.888,167.483 L91.888,143.798 L36.488,143.798 L36.488,178.275 L141.815,178.275 C141.949,180.794 142.361,214.299 142.361,214.299 L142.361,214.299 Z" id="Fill-8" fill="#535353"></path>
                        <polygon id="Fill-13" fill="#535353" points="129.136 39.307 174.532 39.307 174.532 1.25 129.136 1.25"></polygon>
                        <polygon id="Fill-14" fill="#535353" points="1.268 167.773 34.914 167.773 34.914 123.117 1.268 123.117"></polygon>
                        <polygon id="Fill-15" fill="#535353" points="92.408 273.606 125.327 273.606 125.327 228.943 92.408 228.943"></polygon>
                        <polygon id="Fill-16" fill="#535353" points="186.345 142.19 223.695 142.19 223.695 112.939 186.345 112.939"></polygon>
                        <polygon id="Fill-17" fill="#535353" points="176.149 39.293 203.776 39.293 203.776 1.134 176.149 1.134"></polygon>
                        <polygon id="Fill-18" fill="#535353" points="186.418 84.853 223.738 84.853 223.738 57.795 186.418 57.795"></polygon>
                        <polygon id="Fill-19" fill="#535353" points="57.083 214.055 85.604 214.055 85.604 179.669 57.083 179.669"></polygon>
                        <polygon id="Fill-20" fill="#535353" points="148.179 320.659 175.924 320.659 175.924 285.581 148.179 285.581"></polygon>
                        <polygon id="Fill-21" fill="#535353" points="204.719 320.55 231.763 320.55 231.763 285.435 204.719 285.435"></polygon>
                        <polygon id="Fill-22" fill="#535353" points="110.039 92.193 148.091 92.193 148.091 67.35 110.039 67.35"></polygon>
                        <polygon id="Fill-23" fill="#535353" points="109.934 65.731 148.07 65.731 148.07 40.884 109.934 40.884"></polygon>
                        <polygon id="Fill-24" fill="#535353" points="1.289 197.136 34.895 197.136 34.895 169.403 1.289 169.403"></polygon>
                        <polygon id="Fill-25" fill="#535353" points="113.636 214.177 140.691 214.177 140.691 179.792 113.636 179.792"></polygon>
                        <polygon id="Fill-26" fill="#535353" points="186.338 111.335 223.7 111.335 223.7 86.488 186.338 86.488"></polygon>
                        <polygon id="Fill-27" fill="#535353" points="92.313 302.957 125.291 302.957 125.291 275.177 92.313 275.177"></polygon>
                        <polygon id="Fill-28" fill="#535353" points="177.508 320.648 203.087 320.648 203.087 285.465 177.508 285.465"></polygon>
                        <path d="M35.3452,119.7939 L35.3452,110.0119 L63.5742,110.0119 L63.5742,142.0889 L36.2742,142.0889 C36.2742,135.7919 36.3212,129.5999 36.2322,123.4109 C36.2152,122.2099 35.6662,121.0149 35.3622,119.8169 L35.3452,119.7939 L35.3452,119.7939 Z" id="Fill-29" fill="#535353"></path>
                        <polygon id="Fill-30" fill="#535353" points="155.51 247.836 182.551 247.836 182.551 215.658 155.51 215.658"></polygon>
                        <polygon id="Fill-31" fill="#535353" points="126.858 247.841 153.911 247.841 153.911 215.658 126.858 215.658"></polygon>
                        <polygon id="Fill-32" fill="#535353" points="87.195 214.053 112.045 214.053 112.045 179.669 87.195 179.669"></polygon>
                        <polygon id="Fill-33" fill="#535353" points="65.16 142.075 91.479 142.075 91.479 109.892 65.16 109.892"></polygon>
                        <path d="M125.2026,166.4096 L93.0776,166.4096 L93.0776,143.6416 L105.9426,143.6416 L105.9426,133.4186 L117.3486,133.4186 L117.3486,144.0086 C120.1206,144.1396 122.5106,144.2536 125.2026,144.3816 L125.2026,166.4096 L125.2026,166.4096 Z" id="Fill-34" fill="#535353"></path>
                        <path d="M184.124,272.0761 L184.124,249.3481 L196.951,249.3481 L196.951,239.2851 L208.484,239.2851 L208.484,249.7591 C211.015,249.9091 213.16,250.0361 215.575,250.1801 L215.575,272.0761 L184.124,272.0761 L184.124,272.0761 Z" id="Fill-35" fill="#535353"></path>
                        <path d="M149.3457,108.0556 L149.3457,93.8606 L173.0087,93.8606 L173.0087,123.7176 L149.4517,123.7176 L149.4517,113.9096 L141.6237,113.9096 L141.6237,108.4046 C144.0587,108.2946 146.4497,108.1866 149.3457,108.0556" id="Fill-36" fill="#535353"></path>
                        <polygon id="Fill-37" points="144.501 160.562 172.993 160.562 172.993 144.539 144.501 144.539"></polygon>
                        <polygon id="Fill-38" fill="#535353" points="130.493 128.939 147.986 128.939 147.986 115.07 130.493 115.07"></polygon>
                        <polygon id="Fill-39" fill="#535353" points="130.474 106.884 147.964 106.884 147.964 93.791 130.474 93.791"></polygon>
                        <polygon id="Fill-40" points="130.606 142.872 148.089 142.872 148.089 130.519 130.606 130.519"></polygon>
                        <polygon id="Fill-41" fill="#535353" points="149.628 142.935 161.256 142.935 161.256 125.444 149.628 125.444"></polygon>
                        <polygon id="Fill-42" fill="#535353" points="93.167 142.163 104.662 142.163 104.662 125.278 93.167 125.278"></polygon>
                        <polygon id="Fill-43" fill="#535353" points="184.245 247.93 195.74 247.93 195.74 231.044 184.245 231.044"></polygon>
                        <polygon id="Fill-44" fill="#535353" points="217.181 272.184 233.991 272.184 233.991 261.291 217.181 261.291"></polygon>
                        <polygon id="Fill-45" fill="#535353" points="118.815 142.972 128.846 142.972 128.846 125.353 118.815 125.353"></polygon>
                        <polygon id="Fill-46" fill="#535353" points="162.867 142.783 172.99 142.783 172.99 125.334 162.867 125.334"></polygon>
                        <polygon id="Fill-47" fill="#535353" points="126.928 166.381 142.824 166.381 142.824 155.359 126.928 155.359"></polygon>
                        <polygon id="Fill-48" fill="#535353" points="209.896 248.659 219.242 248.659 219.242 231.774 209.896 231.774"></polygon>
                        <polygon id="Fill-49" fill="#535353" points="217.301 259.687 233.923 259.687 233.923 250.13 217.301 250.13"></polygon>
                        <polygon id="Fill-50" fill="#535353" points="126.875 153.822 143.007 153.822 143.007 144.54 126.875 144.54"></polygon>
                        <polygon id="Fill-51" fill="#535353" points="126.828 292.695 146.598 292.695 146.598 285.509 126.828 285.509"></polygon>
                        <polygon id="Fill-52" fill="#535353" points="36.591 186.952 55.547 186.952 55.547 179.719 36.591 179.719"></polygon>
                        <polygon id="Fill-53" fill="#535353" points="186.291 56.192 192.777 56.192 192.777 40.92 186.291 40.92"></polygon>
                        <path d="M194.5,161.5 L254.5,186.5" id="Line" stroke-width="2" fill="#535353"></path>
                        <path d="M255,186.5 L255,100" id="Line" stroke-width="2" fill="#535353"></path>
                        <path d="M255.5,100 L294.5,100" id="Line" stroke-width="2" fill="#535353"></path>
                    </g>
                    <g id="Group-2" transform="translate(407.500000, 180.500000) scale(-1, 1) translate(-407.500000, -180.500000) translate(260.000000, 0.000000)" stroke="#A9A9A9">
                        <path d="M210.8439,189.4751 C212.8889,188.6771 214.8469,187.6601 216.8439,186.7441 L260.4319,186.7441 L260.4319,214.5581 L218.7999,214.5581 L218.7999,229.8381 L205.9159,229.8381 C205.7379,232.7041 205.5829,235.1881 205.4329,237.5991 L194.4799,237.5991 C194.3349,235.1931 194.2059,233.0491 194.0679,230.7481 L182.0929,230.7481 L182.0929,248.7571 L167.3549,248.7571 L167.3549,265.5381 L142.3759,265.5381 C142.2839,264.7281 142.5809,217.0491 142.7979,215.9951 C165.4829,207.160099 188.1699,198.3351 210.8439,189.4751 L210.8439,189.4751 Z" id="Fill-6" stroke-width="2" transform="translate(201.395304, 226.141100) scale(-1, 1) translate(-201.395304, -226.141100) "></path>
                        <path d="M186.291,56.192 L192.777,56.192 L192.777,40.92 L186.291,40.92 L186.291,56.192 L186.291,56.192 Z M36.591,186.952 L55.547,186.952 L55.547,179.719 L36.591,179.719 L36.591,186.952 L36.591,186.952 Z M126.828,292.694 L146.598,292.694 L146.598,285.508 L126.828,285.508 L126.828,292.694 L126.828,292.694 Z M126.875,153.822 L143.007,153.822 L143.007,144.54 L126.875,144.54 L126.875,153.822 L126.875,153.822 Z M217.301,259.686 L233.923,259.686 L233.923,250.129 L217.301,250.129 L217.301,259.686 L217.301,259.686 Z M209.896,248.659 L219.242,248.659 L219.242,231.774 L209.896,231.774 L209.896,248.659 L209.896,248.659 Z M126.928,166.381 L142.824,166.381 L142.824,155.359 L126.928,155.359 L126.928,166.381 L126.928,166.381 Z M162.867,142.784 L172.99,142.784 L172.99,125.335 L162.867,125.335 L162.867,142.784 L162.867,142.784 Z M118.815,142.971 L128.846,142.971 L128.846,125.352 L118.815,125.352 L118.815,142.971 L118.815,142.971 Z M217.181,272.184 L233.991,272.184 L233.991,261.291 L217.181,261.291 L217.181,272.184 L217.181,272.184 Z M184.245,247.93 L195.74,247.93 L195.74,231.044 L184.245,231.044 L184.245,247.93 L184.245,247.93 Z M93.167,142.163 L104.662,142.163 L104.662,125.278 L93.167,125.278 L93.167,142.163 L93.167,142.163 Z M149.628,142.935 L161.256,142.935 L161.256,125.444 L149.628,125.444 L149.628,142.935 L149.628,142.935 Z M130.606,142.872 L148.089,142.872 L148.089,130.519 L130.606,130.519 L130.606,142.872 L130.606,142.872 Z M130.474,106.884 L147.964,106.884 L147.964,93.791 L130.474,93.791 L130.474,106.884 L130.474,106.884 Z M130.493,128.939 L147.986,128.939 L147.986,115.07 L130.493,115.07 L130.493,128.939 L130.493,128.939 Z M144.501,160.563 L172.993,160.563 L172.993,144.54 L144.501,144.54 L144.501,160.563 L144.501,160.563 Z M149.346,108.056 C146.45,108.186 144.059,108.294 141.624,108.405 L141.624,113.91 L149.452,113.91 L149.452,123.717 L173.009,123.717 L173.009,93.86 L149.346,93.86 L149.346,108.056 L149.346,108.056 Z M184.124,272.076 L215.575,272.076 L215.575,250.18 C213.16,250.036 211.015,249.909 208.484,249.759 L208.484,239.285 L196.951,239.285 L196.951,249.349 L184.124,249.349 L184.124,272.076 L184.124,272.076 Z M125.203,166.41 L125.203,144.381 C122.511,144.253 120.121,144.14 117.349,144.008 L117.349,133.418 L105.942,133.418 L105.942,143.642 L93.078,143.642 L93.078,166.41 L125.203,166.41 L125.203,166.41 Z M65.16,142.074 L91.479,142.074 L91.479,109.891 L65.16,109.891 L65.16,142.074 L65.16,142.074 Z M87.195,214.053 L112.045,214.053 L112.045,179.669 L87.195,179.669 L87.195,214.053 L87.195,214.053 Z M126.858,247.841 L153.911,247.841 L153.911,215.658 L126.858,215.658 L126.858,247.841 L126.858,247.841 Z M155.51,247.836 L182.551,247.836 L182.551,215.658 L155.51,215.658 L155.51,247.836 L155.51,247.836 Z M177.508,320.647 L203.087,320.647 L203.087,285.464 L177.508,285.464 L177.508,320.647 L177.508,320.647 Z M92.313,302.957 L125.291,302.957 L125.291,275.177 L92.313,275.177 L92.313,302.957 L92.313,302.957 Z M186.338,111.335 L223.7,111.335 L223.7,86.488 L186.338,86.488 L186.338,111.335 L186.338,111.335 Z M113.636,214.177 L140.691,214.177 L140.691,179.792 L113.636,179.792 L113.636,214.177 L113.636,214.177 Z M1.289,197.136 L34.895,197.136 L34.895,169.403 L1.289,169.403 L1.289,197.136 L1.289,197.136 Z M109.934,65.73 L148.07,65.73 L148.07,40.883 L109.934,40.883 L109.934,65.73 L109.934,65.73 Z M110.039,92.194 L148.091,92.194 L148.091,67.351 L110.039,67.351 L110.039,92.194 L110.039,92.194 Z M204.719,320.55 L231.763,320.55 L231.763,285.435 L204.719,285.435 L204.719,320.55 L204.719,320.55 Z M148.179,320.659 L175.924,320.659 L175.924,285.581 L148.179,285.581 L148.179,320.659 L148.179,320.659 Z M57.083,214.055 L85.604,214.055 L85.604,179.669 L57.083,179.669 L57.083,214.055 L57.083,214.055 Z M186.418,84.853 L223.738,84.853 L223.738,57.795 L186.418,57.795 L186.418,84.853 L186.418,84.853 Z M176.149,39.293 L203.776,39.293 L203.776,1.134 L176.149,1.134 L176.149,39.293 L176.149,39.293 Z M186.345,142.19 L223.695,142.19 L223.695,112.939 L186.345,112.939 L186.345,142.19 L186.345,142.19 Z M92.408,273.606 L125.327,273.606 L125.327,228.943 L92.408,228.943 L92.408,273.606 L92.408,273.606 Z M1.268,167.773 L34.914,167.773 L34.914,123.117 L1.268,123.117 L1.268,167.773 L1.268,167.773 Z M129.136,39.306 L174.532,39.306 L174.532,1.249 L129.136,1.249 L129.136,39.306 L129.136,39.306 Z M233.354,359.601 L260.418,359.601 L260.418,285.564 L233.354,285.564 L233.354,359.601 L233.354,359.601 Z M142.361,214.299 L183.738,214.299 L183.738,229.708 L196.92,229.708 C197.062,232.615 197.179,235.004 197.307,237.624 L208.301,237.624 C208.42,235.463 208.539,233.316 208.675,230.849 L220.574,230.849 L220.574,248.633 L235.195,248.633 L235.195,265.504 C235.195,265.504 235.277,270.993 235.132,273.194 L182.943,273.194 L182.943,249.488 L126.883,249.488 L126.883,284.07 L261.537,284.07 L261.537,360.646 L232.153,360.646 L232.153,322.154 L146.952,322.154 L146.952,294.291 L126.734,294.291 L126.734,304.039 L91.322,304.039 L91.322,227.639 L125.259,227.639 L125.259,215.631 L55.853,215.631 L55.853,188.515 L36.37,188.515 L36.37,198.282 L0.235,198.282 L0.235,122.03 C1.373,121.966 2.656,121.833 3.938,121.83 C13.24,121.811 22.542,121.821 31.844,121.813 C33.381,121.812 35.186,122.237 35.362,119.817 C35.667,121.015 36.215,122.209 36.232,123.411 C36.321,129.6 36.274,135.792 36.274,142.089 L63.574,142.089 L63.574,110.012 L35.345,110.012 L35.345,119.794 C34.915,116.298 34.484,112.802 34.008,108.925 L92.79,108.925 L92.79,123.95 L105.834,123.95 C105.965,126.721 106.078,129.112 106.205,131.799 L117.251,131.799 C117.373,129.299 117.489,126.909 117.624,124.125 L129.04,124.125 L129.04,113.845 L139.994,113.845 L139.994,108.313 L129.354,108.313 L129.354,93.751 L108.97,93.751 L108.97,39.643 L127.589,39.643 L127.589,0.205 L204.866,0.205 L204.866,40.602 L194.442,40.602 L194.442,56.283 L224.704,56.283 L224.704,143.433 L194.411,143.433 L194.411,161.483 C194.076,161.504 193.742,161.524 193.407,161.545 L193.407,143.704 C190.316,143.554 187.925,143.438 185.146,143.303 L185.146,40.964 L149.594,40.964 L149.594,92.357 L174.065,92.357 L174.065,161.625 L144.557,161.625 C144.359,163.748 144.197,165.501 144.014,167.483 L91.888,167.483 L91.888,143.798 L36.488,143.798 L36.488,178.275 L141.815,178.275 C141.949,180.794 142.361,214.299 142.361,214.299 L142.361,214.299 Z" id="Fill-8" fill="#535353"></path>
                        <polygon id="Fill-13" fill="#535353" points="129.136 39.307 174.532 39.307 174.532 1.25 129.136 1.25"></polygon>
                        <polygon id="Fill-14" fill="#535353" points="1.268 167.773 34.914 167.773 34.914 123.117 1.268 123.117"></polygon>
                        <polygon id="Fill-15" fill="#535353" points="92.408 273.606 125.327 273.606 125.327 228.943 92.408 228.943"></polygon>
                        <polygon id="Fill-16" fill="#535353" points="186.345 142.19 223.695 142.19 223.695 112.939 186.345 112.939"></polygon>
                        <polygon id="Fill-17" fill="#535353" points="176.149 39.293 203.776 39.293 203.776 1.134 176.149 1.134"></polygon>
                        <polygon id="Fill-18" fill="#535353" points="186.418 84.853 223.738 84.853 223.738 57.795 186.418 57.795"></polygon>
                        <polygon id="Fill-19" fill="#535353" points="57.083 214.055 85.604 214.055 85.604 179.669 57.083 179.669"></polygon>
                        <polygon id="Fill-20" fill="#535353" points="148.179 320.659 175.924 320.659 175.924 285.581 148.179 285.581"></polygon>
                        <polygon id="Fill-21" fill="#535353" points="204.719 320.55 231.763 320.55 231.763 285.435 204.719 285.435"></polygon>
                        <polygon id="Fill-22" fill="#535353" points="110.039 92.193 148.091 92.193 148.091 67.35 110.039 67.35"></polygon>
                        <polygon id="Fill-23" fill="#535353" points="109.934 65.731 148.07 65.731 148.07 40.884 109.934 40.884"></polygon>
                        <polygon id="Fill-24" fill="#535353" points="1.289 197.136 34.895 197.136 34.895 169.403 1.289 169.403"></polygon>
                        <polygon id="Fill-25" fill="#535353" points="113.636 214.177 140.691 214.177 140.691 179.792 113.636 179.792"></polygon>
                        <polygon id="Fill-26" fill="#535353" points="186.338 111.335 223.7 111.335 223.7 86.488 186.338 86.488"></polygon>
                        <polygon id="Fill-27" fill="#535353" points="92.313 302.957 125.291 302.957 125.291 275.177 92.313 275.177"></polygon>
                        <polygon id="Fill-28" fill="#535353" points="177.508 320.648 203.087 320.648 203.087 285.465 177.508 285.465"></polygon>
                        <path d="M35.3452,119.7939 L35.3452,110.0119 L63.5742,110.0119 L63.5742,142.0889 L36.2742,142.0889 C36.2742,135.7919 36.3212,129.5999 36.2322,123.4109 C36.2152,122.2099 35.6662,121.0149 35.3622,119.8169 L35.3452,119.7939 L35.3452,119.7939 Z" id="Fill-29" fill="#535353"></path>
                        <polygon id="Fill-30" fill="#535353" points="155.51 247.836 182.551 247.836 182.551 215.658 155.51 215.658"></polygon>
                        <polygon id="Fill-31" fill="#535353" points="126.858 247.841 153.911 247.841 153.911 215.658 126.858 215.658"></polygon>
                        <polygon id="Fill-32" fill="#535353" points="87.195 214.053 112.045 214.053 112.045 179.669 87.195 179.669"></polygon>
                        <polygon id="Fill-33" fill="#535353" points="65.16 142.075 91.479 142.075 91.479 109.892 65.16 109.892"></polygon>
                        <path d="M125.2026,166.4096 L93.0776,166.4096 L93.0776,143.6416 L105.9426,143.6416 L105.9426,133.4186 L117.3486,133.4186 L117.3486,144.0086 C120.1206,144.1396 122.5106,144.2536 125.2026,144.3816 L125.2026,166.4096 L125.2026,166.4096 Z" id="Fill-34" fill="#535353"></path>
                        <path d="M184.124,272.0761 L184.124,249.3481 L196.951,249.3481 L196.951,239.2851 L208.484,239.2851 L208.484,249.7591 C211.015,249.9091 213.16,250.0361 215.575,250.1801 L215.575,272.0761 L184.124,272.0761 L184.124,272.0761 Z" id="Fill-35" fill="#535353"></path>
                        <path d="M149.3457,108.0556 L149.3457,93.8606 L173.0087,93.8606 L173.0087,123.7176 L149.4517,123.7176 L149.4517,113.9096 L141.6237,113.9096 L141.6237,108.4046 C144.0587,108.2946 146.4497,108.1866 149.3457,108.0556" id="Fill-36" fill="#535353"></path>
                        <polygon id="Fill-37" points="144.501 160.562 172.993 160.562 172.993 144.539 144.501 144.539"></polygon>
                        <polygon id="Fill-38" fill="#535353" points="130.493 128.939 147.986 128.939 147.986 115.07 130.493 115.07"></polygon>
                        <polygon id="Fill-39" fill="#535353" points="130.474 106.884 147.964 106.884 147.964 93.791 130.474 93.791"></polygon>
                        <polygon id="Fill-40" points="130.606 142.872 148.089 142.872 148.089 130.519 130.606 130.519"></polygon>
                        <polygon id="Fill-41" fill="#535353" points="149.628 142.935 161.256 142.935 161.256 125.444 149.628 125.444"></polygon>
                        <polygon id="Fill-42" fill="#535353" points="93.167 142.163 104.662 142.163 104.662 125.278 93.167 125.278"></polygon>
                        <polygon id="Fill-43" fill="#535353" points="184.245 247.93 195.74 247.93 195.74 231.044 184.245 231.044"></polygon>
                        <polygon id="Fill-44" fill="#535353" points="217.181 272.184 233.991 272.184 233.991 261.291 217.181 261.291"></polygon>
                        <polygon id="Fill-45" fill="#535353" points="118.815 142.972 128.846 142.972 128.846 125.353 118.815 125.353"></polygon>
                        <polygon id="Fill-46" fill="#535353" points="162.867 142.783 172.99 142.783 172.99 125.334 162.867 125.334"></polygon>
                        <polygon id="Fill-47" fill="#535353" points="126.928 166.381 142.824 166.381 142.824 155.359 126.928 155.359"></polygon>
                        <polygon id="Fill-48" fill="#535353" points="209.896 248.659 219.242 248.659 219.242 231.774 209.896 231.774"></polygon>
                        <polygon id="Fill-49" fill="#535353" points="217.301 259.687 233.923 259.687 233.923 250.13 217.301 250.13"></polygon>
                        <polygon id="Fill-50" fill="#535353" points="126.875 153.822 143.007 153.822 143.007 144.54 126.875 144.54"></polygon>
                        <polygon id="Fill-51" fill="#535353" points="126.828 292.695 146.598 292.695 146.598 285.509 126.828 285.509"></polygon>
                        <polygon id="Fill-52" fill="#535353" points="36.591 186.952 55.547 186.952 55.547 179.719 36.591 179.719"></polygon>
                        <polygon id="Fill-53" fill="#535353" points="186.291 56.192 192.777 56.192 192.777 40.92 186.291 40.92"></polygon>
                        <path d="M194.5,161.5 L254.5,186.5" id="Line" stroke-width="2" fill="#535353"></path>
                        <path d="M255,186.5 L255,100" id="Line" stroke-width="2" fill="#535353"></path>
                        <path d="M255.5,100 L294.5,100" id="Line" stroke-width="2" fill="#535353"></path>
                    </g>
                    <g id="Rectangle-2-Clipped" transform="translate(232.000000, 280.000000)">
                        <mask id="mask-2" fill="white">
                            <use xlink:href="#path-1"></use>
                        </mask>
                        <g id="path-1"></g>
                        <g id="Rectangle-2" mask="url(#mask-2)">
                            <g id="Clipped">
                                <mask id="mask-4" fill="white">
                                    <use xlink:href="#path-3"></use>
                                </mask>
                                <g id="path-1"></g>
                                <polygon id="path-1" stroke="#A9A9A9" stroke-width="4" fill="#262626" mask="url(#mask-4)" points="0 0 36.938908 0 91 0 91 96 0 96"></polygon>
                            </g>
                        </g>
                    </g>
                    <g id="Rectangle-3-Clipped" transform="translate(232.000000, 280.000000)">
                        <mask id="mask-6" fill="white">
                            <use xlink:href="#path-5"></use>
                        </mask>
                        <g id="path-1"></g>
                        <rect id="Rectangle-3" fill="#262626" mask="url(#mask-6)" x="-4" y="-3" width="98" height="7"></rect>
                    </g>
                </g>
            </g>
        </g>
    </g>
</svg>